<?xml version="1.0" standalone="no"?>
<!DOCTYPE svg PUBLIC "-//W3C//DTD SVG 20010904//EN"
 "http://www.w3.org/TR/2001/REC-SVG-20010904/DTD/svg10.dtd">
<svg version="1.0" xmlns="http://www.w3.org/2000/svg"
 width="100.000000pt" height="100.000000pt" viewBox="0 0 100.000000 100.000000"
 preserveAspectRatio="xMidYMid meet">

<g transform="translate(0.000000,100.000000) scale(0.100000,-0.100000)"
fill="#000000" stroke="none">
<path d="M730 965 c-14 -8 -68 -64 -120 -124 -52 -60 -99 -110 -104 -110 -4
-1 -49 34 -100 77 -125 108 -217 143 -286 107 -40 -21 -60 -53 -60 -96 0 -48
18 -69 155 -180 63 -51 115 -98 115 -103 0 -6 -52 -69 -116 -141 -63 -72 -124
-143 -135 -160 -23 -36 -25 -92 -4 -121 16 -24 126 -67 167 -66 45 1 61 16
183 162 64 77 124 140 132 140 9 0 46 -24 82 -54 36 -29 95 -68 130 -86 53
-26 70 -30 95 -23 63 18 99 124 59 171 -10 11 -56 53 -103 93 -47 40 -91 78
-99 85 -12 11 1 31 82 127 114 137 137 172 137 213 0 53 -31 80 -103 93 -78
13 -76 13 -107 -4z"/>
</g>
</svg>
