<?xml version="1.0" standalone="no"?>
<!DOCTYPE svg PUBLIC "-//W3C//DTD SVG 20010904//EN"
 "http://www.w3.org/TR/2001/REC-SVG-20010904/DTD/svg10.dtd">
<svg version="1.0" xmlns="http://www.w3.org/2000/svg"
 width="1280.000000pt" height="982.000000pt" viewBox="0 0 1280.000000 982.000000"
 preserveAspectRatio="xMidYMid meet">
<g transform="translate(0.000000,982.000000) scale(0.100000,-0.100000)"
fill="#000000" stroke="none">
<path d="M2355 8709 c-565 -68 -1131 -333 -1524 -714 -285 -275 -453 -575
-523 -929 -17 -86 -22 -147 -22 -271 1 -637 350 -1059 981 -1186 137 -27 440
-37 594 -20 225 26 498 100 658 179 66 33 78 43 104 89 l28 52 -27 61 c-24 53
-34 65 -75 86 -62 31 -78 30 -179 -7 -263 -95 -536 -120 -757 -69 -326 77
-570 340 -644 695 -24 117 -26 361 -3 496 63 372 284 694 637 923 216 141 463
225 758 257 135 15 438 6 547 -15 227 -46 419 -144 566 -292 162 -161 255
-355 292 -606 22 -150 15 -412 -16 -588 -47 -268 -71 -350 -1267 -4315 -297
-983 -303 -1004 -303 -1060 0 -59 37 -125 82 -148 60 -30 137 -31 382 -3 265
30 306 44 386 126 59 61 128 193 165 317 87 294 240 716 393 1084 531 1276
1298 2638 2065 3669 457 613 900 1077 1142 1196 113 55 225 43 261 -28 22 -43
14 -239 -16 -393 -52 -269 -24 -171 -922 -3255 -385 -1323 -709 -2444 -720
-2492 -25 -108 -19 -164 23 -212 54 -62 135 -67 505 -32 167 16 209 32 281
105 68 69 114 162 218 436 374 991 745 1783 1235 2640 696 1218 1393 2205
1963 2784 256 259 442 391 554 391 57 0 69 -6 95 -48 34 -55 30 -171 -11 -327
-47 -178 -192 -604 -341 -1005 -261 -699 -484 -1331 -658 -1860 -455 -1383
-549 -2120 -341 -2655 126 -324 377 -559 687 -643 86 -23 116 -26 267 -26 190
-1 260 12 425 81 436 180 904 660 1679 1723 429 588 591 876 591 1048 0 52
-34 162 -61 196 -18 22 -28 26 -75 26 l-54 0 -202 -302 c-942 -1415 -1576
-2143 -2006 -2304 -89 -34 -220 -31 -297 6 -109 53 -201 185 -246 355 -30 112
-37 388 -15 575 65 564 223 1091 871 2905 337 943 522 1512 601 1850 23 99 28
143 29 255 0 158 -14 221 -77 350 -33 69 -58 102 -127 170 -98 98 -170 140
-287 170 -331 85 -708 -103 -1204 -600 -648 -650 -1407 -1735 -2162 -3094 -83
-149 -154 -275 -159 -280 -19 -20 -21 6 -6 61 71 260 656 2457 691 2598 59
237 103 452 112 545 8 90 -9 260 -37 367 -65 250 -223 419 -449 480 -48 13
-100 18 -200 17 -117 -1 -147 -4 -225 -28 -248 -75 -499 -243 -799 -536 -599
-584 -1261 -1525 -2031 -2885 -151 -268 -161 -283 -171 -273 -5 6 62 229 172
570 120 372 263 913 328 1244 102 518 99 824 -9 1150 -134 404 -456 759 -880
969 -201 99 -360 150 -595 191 -113 19 -523 28 -645 13z"/>
</g>
</svg>
